HIERARCHY
ROOT Hips
{
	OFFSET 52.362598 -7.076284 85.699600
	CHANNELS 6 Xposition Yposition Zposition Xrotation Yrotation Zrotation
	JOINT spine
	{
		OFFSET 0.000000 -0.367607 6.392601
		CHANNELS 3 Xrotation Yrotation Zrotation
		JOINT spine1
		{
			OFFSET 0.000000 -0.000002 9.176109
			CHANNELS 3 Xrotation Yrotation Zrotation
			JOINT spine2
			{
				OFFSET 0.000000 -0.000001 8.792381
				CHANNELS 3 Xrotation Yrotation Zrotation
				JOINT Neck
				{
					OFFSET 0.000000 -1.076243 22.573708
					CHANNELS 3 Xrotation Yrotation Zrotation
					JOINT Head
					{
						OFFSET 0.000000 -0.000001 6.820114
						CHANNELS 3 Xrotation Yrotation Zrotation
						End Site
						{
							OFFSET 0.000000 5.444267 16.508499
						}
					}
				}
				JOINT RightShoulder
				{
					OFFSET -3.702209 0.515507 9.495087
					CHANNELS 3 Xrotation Yrotation Zrotation
					JOINT RightArm
					{
						OFFSET 0.000000 -0.000002 12.453697
						CHANNELS 3 Xrotation Yrotation Zrotation
						JOINT RightArmRoll
						{
							OFFSET 0.000000 -0.000001 6.286865
							CHANNELS 3 Xrotation Yrotation Zrotation
							JOINT RightForeArm
							{
								OFFSET 0.000000 -0.000003 18.311401
								CHANNELS 3 Xrotation Yrotation Zrotation
								JOINT RightForeArmRoll
								{
									OFFSET 0.000000 -0.000001 7.054825
									CHANNELS 3 Xrotation Yrotation Zrotation
									JOINT RightHand
									{
										OFFSET 0.000000 -0.000002 14.157501
										CHANNELS 3 Xrotation Yrotation Zrotation
										End Site
										{
											OFFSET 0.000000 0.000000 0.100006
										}
									}
								}
							}
						}
					}
				}
				JOINT LeftShoulder
				{
					OFFSET 3.702209 0.515507 9.495087
					CHANNELS 3 Xrotation Yrotation Zrotation
					JOINT LeftArm
					{
						OFFSET 0.000000 -0.000002 12.453697
						CHANNELS 3 Xrotation Yrotation Zrotation
						JOINT LeftArmRoll
						{
							OFFSET 0.000000 -0.000001 6.286850
							CHANNELS 3 Xrotation Yrotation Zrotation
							JOINT LeftForeArm
							{
								OFFSET 0.000000 -0.000003 18.311401
								CHANNELS 3 Xrotation Yrotation Zrotation
								JOINT LeftForeArmRoll
								{
									OFFSET 0.000000 -0.000001 7.054825
									CHANNELS 3 Xrotation Yrotation Zrotation
									JOINT LeftHand
									{
										OFFSET 0.000000 -0.000002 14.157501
										CHANNELS 3 Xrotation Yrotation Zrotation
										End Site
										{
											OFFSET 0.000000 0.000000 0.100006
										}
									}
								}
							}
						}
					}
				}
			}
		}
	}
	JOINT RightUpLeg
	{
		OFFSET -5.666161 0.871610 -1.039032
		CHANNELS 3 Xrotation Yrotation Zrotation
		JOINT RightUpLegRoll
		{
			OFFSET 0.000000 -0.000003 16.600502
			CHANNELS 3 Xrotation Yrotation Zrotation
			JOINT RightLeg
			{
				OFFSET 0.000000 0.000003 -20.557198
				CHANNELS 3 Xrotation Yrotation Zrotation
				JOINT RightLegRoll
				{
					OFFSET 0.000000 -0.000003 20.624397
					CHANNELS 3 Xrotation Yrotation Zrotation
					JOINT RightFoot
					{
						OFFSET 0.000000 -0.000002 17.166405
						CHANNELS 3 Xrotation Yrotation Zrotation
						JOINT RightToeBase
						{
							OFFSET 0.000000 -0.000002 14.350204
							CHANNELS 3 Xrotation Yrotation Zrotation
							End Site
							{
								OFFSET 0.006081 0.801060 6.949707
							}
						}
					}
				}
			}
		}
	}
	JOINT LeftUpLeg
	{
		OFFSET 5.666161 0.871610 -1.039032
		CHANNELS 3 Xrotation Yrotation Zrotation
		JOINT LeftUpLegRoll
		{
			OFFSET 0.000000 -0.000003 16.600601
			CHANNELS 3 Xrotation Yrotation Zrotation
			JOINT LeftLeg
			{
				OFFSET 0.000000 -0.000003 20.557098
				CHANNELS 3 Xrotation Yrotation Zrotation
				JOINT LeftLegRoll
				{
					OFFSET 0.000000 -0.000003 20.815094
					CHANNELS 3 Xrotation Yrotation Zrotation
					JOINT LeftFoot
					{
						OFFSET 0.000000 -0.000003 16.975708
						CHANNELS 3 Xrotation Yrotation Zrotation
						JOINT LeftToeBase
						{
							OFFSET 0.000000 -0.000002 14.350204
							CHANNELS 3 Xrotation Yrotation Zrotation
							End Site
							{
								OFFSET -0.027260 0.801059 6.949707
							}
						}
					}
				}
			}
		}
	}
}
MOTION
Frames: 7
Frame Time: 0.041667
51.789295 -7.163174 85.554306 -3.257129 0.281422 -0.681207 -1.290934 0.116156 -0.229924 1.421413 0.235220 -0.458336 3.066465 0.229713 -0.461127 12.277807 3.658378 -1.788733 13.492945 -1.489004 -1.892920 -18.458895 -27.352522 -21.774103 -111.103825 -125.569517 -67.399583 -0.000003 0.000000 -0.000003 16.685326 8.955082 -0.881933 0.000001 0.000001 -3.009022 -5.000212 -7.998724 0.000152 -20.477797 20.449793 24.889829 -115.481533 123.438867 86.584211 -0.000003 0.000034 0.000001 15.541935 -6.411190 0.628800 0.000004 0.000011 3.001208 -5.000235 7.998933 -0.000129 1.734541 -175.275153 1.594258 -179.999991 0.000005 -1.080995 174.503410 -3.851260 -0.552326 0.000002 0.000001 0.051917 68.607911 6.862785 2.231344 25.456959 -7.355616 -0.000001 1.549390 175.966478 0.938419 -0.000005 -0.000005 -1.052400 -7.239559 0.977888 0.601312 -0.000008 -0.000001 -0.058582 69.902888 -6.472230 -3.179469 25.464835 7.355618 -0.000004 
51.786396 -7.189095 85.557098 -3.262107 0.277459 -0.689254 -1.290053 0.116971 -0.229178 1.423193 0.236860 -0.456827 3.068245 0.231371 -0.459651 12.288881 3.647660 -1.789625 13.453717 -1.471148 -1.896589 -18.436742 -27.495171 -21.742294 -110.975329 -125.430195 -67.458288 -0.000002 -0.000000 -0.000004 16.271420 8.923582 -0.868046 0.000001 0.000000 -3.009024 -5.000212 -7.998723 0.000151 -20.439858 20.532098 24.828837 -115.406059 123.229057 86.959421 -0.000002 0.000034 -0.000002 15.097411 -6.068752 0.611106 0.000002 0.000010 3.001212 -5.000234 7.998933 -0.000124 1.734689 -175.268159 1.598531 -179.999991 0.000005 -1.080995 174.499777 -3.852229 -0.552664 0.000002 0.000001 0.051921 68.605917 6.862826 2.231276 25.456960 -7.355617 -0.000001 1.556324 175.973486 0.942901 -0.000005 -0.000004 -1.052270 -7.237555 0.975713 0.601065 -0.000008 -0.000001 -0.058566 69.903557 -6.473718 -3.175495 25.464835 7.355619 -0.000004 
51.730991 -7.275125 85.566093 -3.267908 0.274442 -0.697606 -1.288981 0.118032 -0.228302 1.425322 0.239000 -0.455055 3.070386 0.233531 -0.457926 12.301777 3.630722 -1.790695 13.411473 -1.450746 -1.900268 -18.415433 -27.643002 -21.711734 -110.851354 -125.292649 -67.512527 -0.000003 -0.000003 -0.000005 15.871087 8.891869 -0.854016 0.000001 0.000000 -3.009010 -5.000211 -7.998724 0.000151 -20.399518 20.608817 24.764353 -115.325285 123.011707 87.337957 -0.000002 0.000033 -0.000002 14.662505 -5.711077 0.593053 0.000002 0.000012 3.001204 -5.000233 7.998932 -0.000125 1.735646 -175.263173 1.601951 -179.999991 0.000005 -1.080995 174.495952 -3.851211 -0.552827 0.000002 0.000001 0.051927 68.603718 6.862857 2.231319 25.456960 -7.355614 -0.000001 1.563479 175.980493 0.946160 -0.000005 -0.000004 -1.052120 -7.237050 0.973835 0.600932 -0.000008 -0.000001 -0.058547 69.905040 -6.475109 -3.171855 25.464837 7.355619 -0.000004 
51.741795 -7.244314 85.562897 -3.274436 0.272284 -0.706242 -1.287761 0.119300 -0.227324 1.427783 0.241561 -0.453072 3.072837 0.236116 -0.456000 12.316101 3.608412 -1.791872 13.366632 -1.428162 -1.903902 -18.394794 -27.795653 -21.682130 -110.731314 -125.156701 -67.563070 -0.000002 -0.000001 -0.000003 15.482683 8.859707 -0.839807 0.000001 0.000002 -3.009010 -5.000210 -7.998724 0.000152 -20.357130 20.680947 24.696991 -115.239826 122.787567 87.718542 -0.000002 0.000034 0.000005 14.237294 -5.340103 0.575141 0.000003 0.000011 3.001203 -5.000236 7.998932 -0.000128 1.737331 -175.259171 1.604642 -179.999991 0.000006 -1.080995 174.491881 -3.851187 -0.552089 0.000002 0.000001 0.051932 68.601532 6.862922 2.231166 25.456960 -7.355615 -0.000000 1.570829 175.984496 0.948254 -0.000005 -0.000004 -1.051950 -7.237868 0.972223 0.600897 -0.000008 -0.000001 -0.058526 69.907218 -6.476359 -3.168551 25.464837 7.355619 -0.000004 
51.734596 -7.272983 85.565804 -3.281579 0.270894 -0.715140 -1.286392 0.120739 -0.226268 1.430503 0.244465 -0.450929 3.075567 0.239044 -0.453922 12.331465 3.581585 -1.793083 13.319776 -1.403799 -1.907442 -18.374766 -27.952636 -21.653416 -110.614326 -125.022282 -67.610082 -0.000002 0.000002 -0.000003 15.104782 8.826869 -0.825389 0.000002 0.000001 -3.009007 -5.000209 -7.998722 0.000151 -20.313010 20.749300 24.627137 -115.150924 122.557390 88.100786 -0.000003 0.000032 0.000001 13.821638 -4.957774 0.557767 0.000003 0.000011 3.001200 -5.000234 7.998933 -0.000125 1.739634 -175.257176 1.606702 -179.999991 0.000005 -1.080995 174.487674 -3.850166 -0.552276 0.000003 0.000001 0.051937 68.599312 6.862916 2.231203 25.456960 -7.355616 -0.000001 1.578330 175.988526 0.949388 -0.000005 -0.000004 -1.051760 -7.239795 0.970845 0.600949 -0.000007 -0.000001 -0.058503 69.909903 -6.477532 -3.165503 25.464835 7.355619 -0.000004 
51.729996 -7.269635 85.570297 -3.289237 0.270185 -0.724279 -1.284922 0.122309 -0.225158 1.433463 0.247633 -0.448680 3.078527 0.242239 -0.451741 12.347480 3.551057 -1.794263 13.271511 -1.378012 -1.910821 -18.355268 -28.113492 -21.625299 -110.499955 -124.889258 -67.654178 -0.000002 0.000000 -0.000008 14.735848 8.793127 -0.810745 0.000002 0.000002 -3.009012 -5.000210 -7.998725 0.000151 -20.267625 20.814885 24.555425 -115.059372 122.322076 88.483789 -0.000003 0.000034 -0.000003 13.415676 -4.566054 0.541280 0.000003 0.000011 3.001191 -5.000234 7.998933 -0.000122 1.742458 -175.255182 1.608296 -179.999991 0.000005 -1.080995 174.483316 -3.849145 -0.552473 0.000002 0.000001 0.051942 68.597017 6.862972 2.231157 25.456959 -7.355616 -0.000001 1.585964 175.990534 0.949620 -0.000005 -0.000005 -1.051560 -7.242663 0.969668 0.601072 -0.000008 -0.000001 -0.058479 69.912983 -6.478619 -3.162815 25.464837 7.355618 -0.000004 
51.731194 -7.278123 85.569199 -3.297296 0.270067 -0.733640 -1.283353 0.123974 -0.224022 1.436614 0.250987 -0.446374 3.081669 0.245620 -0.449506 12.363961 3.517685 -1.795342 13.222243 -1.351179 -1.914003 -18.335914 -28.277888 -21.597586 -110.387209 -124.757435 -67.695665 -0.000002 -0.000000 -0.000006 14.374461 8.758265 -0.795871 0.000001 0.000002 -3.009009 -5.000211 -7.998724 0.000150 -20.221101 20.878613 24.482431 -114.965539 122.082323 88.866102 -0.000002 0.000033 -0.000002 13.019221 -4.166946 0.525946 0.000001 0.000011 3.001189 -5.000234 7.998933 -0.000128 1.745711 -175.254198 1.609516 -179.999991 0.000005 -1.080995 174.478917 -3.848124 -0.552672 0.000002 0.000001 0.051947 68.594716 6.863030 2.231010 25.456959 -7.355616 -0.000000 1.593678 175.992555 0.949145 -0.000005 -0.000005 -1.051350 -7.246271 0.968662 0.601254 -0.000008 -0.000001 -0.058457 69.916432 -6.479589 -3.160288 25.464837 7.355619 -0.000004 
